<svg xmlns="http://www.w3.org/2000/svg" xmlns:xlink="http://www.w3.org/1999/xlink" viewBox="0 0 611.51 611.51"><defs><style>.cls-1{mask:url(#mask);filter:url(#luminosity-noclip-2);}.cls-2{mix-blend-mode:multiply;fill:url(#radial-gradient);}.cls-3{fill:url(#linear-gradient);}.cls-4{fill:url(#linear-gradient-2);}.cls-5{mask:url(#mask-2);}.cls-6{fill:url(#radial-gradient-2);}.cls-7{filter:url(#luminosity-noclip);}</style><filter id="luminosity-noclip" x="45.91" y="-5523.51" width="518.8" height="32766" filterUnits="userSpaceOnUse" color-interpolation-filters="sRGB"><feFlood flood-color="#fff" result="bg"/><feBlend in="SourceGraphic" in2="bg"/></filter><mask id="mask" x="45.91" y="-5523.51" width="518.8" height="32766" maskUnits="userSpaceOnUse"><g class="cls-7"/></mask><radialGradient id="radial-gradient" cx="305.31" cy="305.75" r="259.4" gradientTransform="translate(305.62 -126.33) rotate(45)" gradientUnits="userSpaceOnUse"><stop offset="0.98" stop-color="#fff"/><stop offset="1" stop-color="#757575"/></radialGradient><linearGradient id="linear-gradient" x1="87.27" y1="-0.87" x2="515.06" y2="599.5" gradientTransform="translate(305.75 -126.65) rotate(45)" gradientUnits="userSpaceOnUse"><stop offset="0" stop-color="#4d4d4d"/><stop offset="1"/></linearGradient><linearGradient id="linear-gradient-2" x1="520.7" y1="589.15" x2="118.14" y2="58.39" gradientUnits="userSpaceOnUse"><stop offset="0" stop-color="gray"/><stop offset="1"/></linearGradient><filter id="luminosity-noclip-2" x="45.91" y="46.35" width="518.8" height="518.8" filterUnits="userSpaceOnUse" color-interpolation-filters="sRGB"><feFlood flood-color="#fff" result="bg"/><feBlend in="SourceGraphic" in2="bg"/></filter><mask id="mask-2" x="45.91" y="46.35" width="518.8" height="518.8" maskUnits="userSpaceOnUse"><g class="cls-1"><circle class="cls-2" cx="305.31" cy="305.75" r="259.4" transform="translate(-126.78 305.44) rotate(-45)"/></g></mask><radialGradient id="radial-gradient-2" cx="305.31" cy="305.75" r="259.4" gradientTransform="translate(305.62 -126.33) rotate(45)" gradientUnits="userSpaceOnUse"><stop offset="0.98" stop-color="#f6f4f4"/><stop offset="1" stop-color="#383838"/></radialGradient></defs><title>表盘6</title><g id="图层_2" data-name="图层 2"><g id="Layer_1" data-name="Layer 1"><circle class="cls-3" cx="305.75" cy="305.75" r="305.75" transform="translate(-126.65 305.75) rotate(-45)"/><path class="cls-4" d="M579.92,305.75c0-151.42-122.74-274.17-274.16-274.17S31.58,154.33,31.58,305.75,154.33,579.92,305.76,579.92,579.92,457.17,579.92,305.75Z"/><g class="cls-5"><circle class="cls-6" cx="305.31" cy="305.75" r="259.4" transform="translate(-126.78 305.44) rotate(-45)"/></g><rect x="299.72" y="58.68" width="12.07" height="32.18"/><rect x="299.72" y="519.43" width="12.07" height="33.52"/><rect x="94.18" y="178.9" width="6.71" height="13.41" transform="translate(-111.97 177.27) rotate(-60)"/><rect x="510.62" y="419.33" width="6.7" height="13.41" transform="translate(-111.95 658.17) rotate(-60)"/><rect x="419.27" y="94.24" width="13.41" height="6.7" transform="translate(128.33 417.57) rotate(-59.97)"/><rect x="178.83" y="510.68" width="13.41" height="6.7" transform="translate(-352.43 417.88) rotate(-60.02)"/><rect x="507.27" y="182.25" width="13.41" height="6.71" transform="translate(-23.98 281.62) rotate(-29.97)"/><rect x="90.83" y="422.68" width="13.41" height="6.7" transform="translate(-199.96 105.86) rotate(-30)"/><rect x="182.19" y="90.89" width="6.7" height="13.41" transform="translate(-23.94 105.86) rotate(-30)"/><rect x="422.62" y="507.33" width="6.7" height="13.41" transform="translate(-199.9 281.73) rotate(-29.99)"/><rect x="519.37" y="299.78" width="33.52" height="12.07"/><rect x="58.62" y="299.78" width="33.52" height="12.07"/><rect x="324.18" y="65.36" width="13.41" height="2.68" transform="translate(229.82 388.76) rotate(-83.97)"/><rect x="273.92" y="543.59" width="13.41" height="2.68" transform="translate(-290.72 766.9) rotate(-83.98)"/><rect x="109.9" y="157.79" width="2.68" height="13.41" transform="translate(-87.22 157.8) rotate(-54)"/><rect x="498.93" y="440.43" width="2.68" height="13.41" transform="matrix(0.59, -0.81, 0.81, 0.59, -155.53, 589.01)"/><rect x="440.37" y="109.96" width="13.41" height="2.68" transform="translate(94.29 407.62) rotate(-54.01)"/><rect x="157.73" y="498.99" width="13.41" height="2.68" transform="translate(-337.14 339.75) rotate(-54.05)"/><polygon points="519.82 211.97 518.74 209.52 530.98 204.07 532.07 206.52 519.82 211.97"/><rect x="79.4" y="402.27" width="13.41" height="2.68" transform="translate(-157.24 70.3) rotate(-24.09)"/><rect x="206.62" y="79.46" width="2.68" height="13.41" transform="translate(-17.07 92.05) rotate(-24)"/><polygon points="405.05 532.13 399.6 519.88 402.05 518.79 407.5 531.04 405.05 532.13"/><rect x="543.53" y="324.24" width="2.68" height="13.41" transform="translate(158.78 838.23) rotate(-84)"/><rect x="65.3" y="273.98" width="2.68" height="13.41" transform="translate(-219.48 317.54) rotate(-83.98)"/><rect x="349.04" y="69.29" width="13.41" height="2.68" transform="translate(212.74 403.94) rotate(-78.01)"/><rect x="249.06" y="539.65" width="13.41" height="2.68" transform="translate(-326.65 678.38) rotate(-77.97)"/><rect x="125.74" y="138.23" width="2.68" height="13.41" transform="translate(-65.66 142.36) rotate(-47.99)"/><rect x="483.09" y="459.99" width="2.68" height="13.41" transform="translate(-186.54 514.35) rotate(-47.99)"/><rect x="459.93" y="125.8" width="13.41" height="2.68" transform="translate(59.9 388.83) rotate(-48)"/><rect x="138.17" y="483.15" width="13.4" height="2.68" transform="translate(-312.1 267.94) rotate(-48)"/><rect x="527.72" y="230.18" width="13.4" height="2.68" transform="translate(-45.29 175.48) rotate(-17.9)"/><rect x="70.39" y="378.77" width="13.41" height="2.68" transform="translate(-113.59 42.37) rotate(-17.98)"/><rect x="230.11" y="70.45" width="2.68" height="13.41" transform="translate(-12.51 75.31) rotate(-18)"/><rect x="378.71" y="527.78" width="2.68" height="13.41" transform="translate(-146.74 143.84) rotate(-18.03)"/><rect x="539.59" y="349.1" width="2.68" height="13.41" transform="translate(80.46 810.96) rotate(-78)"/><rect x="69.23" y="249.12" width="2.68" height="13.41" transform="translate(-194.33 271.65) rotate(-78)"/><rect x="373.35" y="75.81" width="13.41" height="2.68" transform="translate(189.32 414.8) rotate(-72.01)"/><rect x="224.75" y="533.14" width="13.41" height="2.68" transform="matrix(0.31, -0.95, 0.95, 0.31, -348.35, 589.86)"/><rect x="143.53" y="120.44" width="2.68" height="13.4" transform="translate(-47.86 129.65) rotate(-42.02)"/><rect x="465.29" y="477.79" width="2.68" height="13.4" transform="translate(-204.32 436.47) rotate(-41.98)"/><rect x="477.73" y="143.59" width="13.41" height="2.68" transform="translate(27.17 360.78) rotate(-41.93)"/><rect x="120.37" y="465.36" width="13.41" height="2.68" transform="translate(-279.77 205.11) rotate(-42.03)"/><rect x="534.23" y="254.49" width="13.41" height="2.68" transform="translate(-41.39 118.16) rotate(-12.01)"/><rect x="63.87" y="354.46" width="13.41" height="2.68" transform="translate(-72.48 22.47) rotate(-12.01)"/><rect x="254.42" y="63.93" width="2.68" height="13.41" transform="translate(-9.1 54.73) rotate(-12)"/><rect x="354.4" y="534.29" width="2.68" height="13.41" transform="translate(-104.68 85.76) rotate(-12)"/><rect x="533.08" y="373.41" width="2.68" height="13.41" transform="translate(7.86 771.04) rotate(-72.01)"/><rect x="75.75" y="224.81" width="2.68" height="13.41" transform="translate(-166.92 233.3) rotate(-72)"/><rect x="396.84" y="84.83" width="13.41" height="2.68" transform="translate(161.08 420.06) rotate(-66.07)"/><rect x="201.26" y="524.12" width="13.41" height="2.68" transform="translate(-356.68 502.18) rotate(-66.05)"/><rect x="163.09" y="104.6" width="2.68" height="13.41" transform="translate(-34.02 117.9) rotate(-36)"/><rect x="445.74" y="493.63" width="2.68" height="13.4" transform="translate(-208.72 358.41) rotate(-36.01)"/><rect x="493.56" y="163.15" width="13.41" height="2.68" transform="translate(-1.08 325.67) rotate(-36.02)"/><rect x="104.54" y="445.79" width="13.41" height="2.68" transform="translate(-241.61 150.83) rotate(-36.01)"/><polygon points="538.35 282.72 538.06 280.05 551.39 278.65 551.68 281.32 538.35 282.72"/><rect x="59.94" y="329.61" width="13.41" height="2.68" transform="translate(-34.36 8.82) rotate(-6.02)"/><rect x="279.28" y="60" width="2.68" height="13.41" transform="translate(-5.44 29.71) rotate(-6)"/><rect x="329.55" y="538.23" width="2.68" height="13.41" transform="translate(-55.15 37.57) rotate(-6)"/><rect x="524.06" y="396.9" width="2.68" height="13.41" transform="translate(-57.02 719.4) rotate(-66)"/><rect x="84.77" y="201.32" width="2.68" height="13.41" transform="translate(-138.95 202.05) rotate(-65.99)"/></g></g></svg>